<?xml version="1.0" standalone="no"?>
<!DOCTYPE svg PUBLIC "-//W3C//DTD SVG 20010904//EN"
 "http://www.w3.org/TR/2001/REC-SVG-20010904/DTD/svg10.dtd">
<svg version="1.0" xmlns="http://www.w3.org/2000/svg"
 width="700.000000pt" height="700.000000pt" viewBox="0 0 700.000000 700.000000"
 preserveAspectRatio="xMidYMid meet">
<metadata>
Created by potrace 1.14, written by Peter Selinger 2001-2017
</metadata>
<g transform="translate(0.000000,700.000000) scale(0.100000,-0.100000)"
fill="#000000" stroke="none">
<path d="M2915 6768 c-97 -10 -147 -24 -224 -63 -187 -95 -349 -268 -445 -475
-30 -66 -118 -319 -131 -375 -26 -121 -68 -271 -78 -283 -22 -28 -111 -78
-227 -129 -175 -77 -213 -85 -406 -80 -195 5 -210 0 -200 -66 10 -60 62 -151
122 -212 45 -45 159 -115 225 -137 10 -3 3 -28 -30 -104 -75 -174 -180 -346
-281 -464 -104 -120 -141 -229 -147 -425 -7 -207 -7 -201 20 -237 14 -18 26
-37 26 -43 0 -5 15 -39 33 -75 45 -88 161 -204 250 -249 l67 -33 -6 -112 c-10
-191 -2 -217 147 -506 19 -37 49 -141 57 -200 9 -65 48 -68 64 -5 15 61 44 63
56 4 6 -30 15 -44 31 -50 23 -9 28 -3 46 54 10 31 34 18 48 -25 23 -74 70 -59
77 25 1 5 11 7 23 5 15 -2 24 -13 30 -34 5 -19 16 -34 27 -37 26 -6 31 0 31
35 0 33 16 68 30 68 5 0 16 -14 25 -30 32 -62 67 -28 68 67 1 78 -5 127 -29
233 -9 41 -20 93 -25 115 -5 22 -12 57 -15 78 l-6 38 39 -17 c21 -10 74 -29
117 -44 l79 -27 3 -97 c11 -405 38 -521 188 -800 64 -121 90 -188 105 -274 11
-63 24 -226 24 -312 1 -81 -13 -312 -19 -322 -3 -5 -7 -72 -9 -151 -5 -228 21
-301 125 -356 101 -53 222 -67 365 -43 175 30 230 78 272 242 22 85 37 375 38
714 l1 268 28 15 c22 11 34 12 55 4 60 -26 72 -84 71 -344 0 -117 -2 -223 -4
-237 -3 -14 -7 -56 -11 -95 -7 -90 -29 -250 -40 -300 -2 -5 -6 -28 -9 -50 -4
-22 -11 -65 -16 -95 -5 -30 -12 -89 -15 -130 -11 -145 44 -250 157 -300 103
-45 356 -60 468 -27 74 22 141 68 168 115 32 57 40 136 42 407 1 287 9 462 25
595 5 42 23 222 30 302 2 31 9 85 14 120 9 61 15 95 27 176 3 20 7 44 9 52 3
8 7 33 11 54 8 54 42 163 64 206 57 110 175 160 260 109 40 -24 97 -84 97
-102 0 -7 4 -41 8 -77 19 -144 11 -407 -16 -560 -18 -106 -15 -315 6 -378 36
-108 146 -162 342 -168 191 -6 295 41 352 158 57 115 63 173 66 578 1 201 6
446 10 545 24 525 -9 987 -85 1215 -23 69 -103 235 -126 261 -8 8 -14 19 -14
23 0 8 -136 196 -154 211 -6 6 -39 43 -74 82 -63 72 -63 72 -43 92 11 11 47
54 80 96 165 207 232 503 169 740 -31 119 -117 198 -260 240 -98 28 -250 27
-278 -2 -5 -4 -11 -42 -15 -83 -22 -271 -36 -330 -112 -487 -15 -32 -31 -59
-35 -61 -5 -2 -8 -7 -8 -12 0 -8 -60 -112 -100 -172 l-25 -38 -90 -1 c-49 0
-97 -2 -105 -3 -8 -2 -48 -6 -88 -10 -152 -13 -375 -71 -581 -150 -52 -20 -96
-35 -98 -32 -5 5 -10 38 -18 118 l-6 66 93 -4 c253 -9 519 120 650 316 62 92
138 286 138 351 0 17 -7 32 -19 38 -28 15 -191 4 -281 -19 -100 -25 -180 -32
-388 -34 l-167 -1 -78 48 c-85 52 -214 117 -232 117 -6 0 -20 6 -30 14 -21 15
-20 20 37 144 15 35 28 65 28 68 0 8 81 168 101 199 10 17 22 37 26 45 19 42
126 175 203 251 134 134 218 185 361 224 107 28 129 44 129 93 0 65 -102 132
-240 158 -84 15 -267 12 -331 -5 -174 -47 -320 -139 -476 -299 -148 -151 -259
-310 -348 -498 l-47 -101 -83 20 c-80 20 -83 21 -74 44 5 13 11 34 13 46 8 40
84 291 111 367 33 92 131 290 175 356 18 27 63 85 100 129 104 125 120 157 97
189 -16 22 -97 33 -182 24z"/>
</g>
</svg>
